<?xml version="1.0" encoding="UTF-8"?> <svg xmlns="http://www.w3.org/2000/svg" id="_ÎÓÈ_1" data-name="—ÎÓÈ_1" viewBox="0 0 10.8 16.36"><defs><style>.cls-1{fill:#333;}.cls-2{fill:#e6332a;}</style></defs><title>centrala electrica3</title><path class="cls-1" d="M2529.37,2166a.15.15,0,0,1-.15-.15v-13.39h-6.8v13.39a.15.15,0,0,1-.3,0v-13.54a.15.15,0,0,1,.15-.14h7.1a.15.15,0,0,1,.15.14v13.54A.15.15,0,0,1,2529.37,2166Z" transform="translate(-2520.42 -2152.17)"></path><path class="cls-1" d="M2525.82,2166.81a13.73,13.73,0,0,1-4.77-.87,1,1,0,0,1-.63-.92v-12.7a.15.15,0,0,1,.15-.14h10.5a.14.14,0,0,1,.15.14V2165a1,1,0,0,1-.63.92A13.65,13.65,0,0,1,2525.82,2166.81Zm-5.1-14.34V2165a.69.69,0,0,0,.44.65,13.37,13.37,0,0,0,9.33,0,.71.71,0,0,0,.44-.65v-12.55h-10.21Z" transform="translate(-2520.42 -2152.17)"></path><path class="cls-1" d="M2525.82,2156.13a1.27,1.27,0,0,1,0-2.53,1.27,1.27,0,1,1,0,2.53Zm0-2.23a1,1,0,1,0,1,1A1,1,0,0,0,2525.82,2153.9Z" transform="translate(-2520.42 -2152.17)"></path><path class="cls-1" d="M2528.45,2165.62h-1.21a.15.15,0,0,1-.15-.15.15.15,0,0,1,.15-.14h1.21a.15.15,0,0,1,.15.14A.15.15,0,0,1,2528.45,2165.62Z" transform="translate(-2520.42 -2152.17)"></path><path class="cls-1" d="M2524.7,2165.62h-1.2a.15.15,0,0,1-.15-.15.15.15,0,0,1,.15-.14h1.2a.15.15,0,0,1,.15.14A.15.15,0,0,1,2524.7,2165.62Z" transform="translate(-2520.42 -2152.17)"></path><path class="cls-1" d="M2528.91,2168.54H2528a.15.15,0,0,1-.15-.15v-1.08a.15.15,0,0,1,.15-.15.15.15,0,0,1,.14.15v.93h.63v-.93a.15.15,0,0,1,.3,0v1.08A.15.15,0,0,1,2528.91,2168.54Z" transform="translate(-2520.42 -2152.17)"></path><path class="cls-1" d="M2523.66,2168.54h-.93a.15.15,0,0,1-.14-.15v-1.08a.15.15,0,0,1,.14-.15.15.15,0,0,1,.15.15v.93h.63v-.93a.15.15,0,0,1,.15-.15.15.15,0,0,1,.14.15v1.08A.15.15,0,0,1,2523.66,2168.54Z" transform="translate(-2520.42 -2152.17)"></path><path class="cls-1" d="M2525.82,2154.48a.15.15,0,0,1-.15-.15v-.13a.15.15,0,1,1,.3,0v.13A.15.15,0,0,1,2525.82,2154.48Z" transform="translate(-2520.42 -2152.17)"></path><path class="cls-1" d="M2526.36,2154.77a.13.13,0,0,1-.1,0,.13.13,0,0,1,0-.2l.05-.06a.15.15,0,0,1,.22.2l-.06.06A.12.12,0,0,1,2526.36,2154.77Z" transform="translate(-2520.42 -2152.17)"></path><path class="cls-1" d="M2525.29,2154.77a.15.15,0,0,1-.11,0l0-.06a.15.15,0,0,1,0-.21.14.14,0,0,1,.2,0l0,.06a.13.13,0,0,1,0,.2A.14.14,0,0,1,2525.29,2154.77Z" transform="translate(-2520.42 -2152.17)"></path><path class="cls-1" d="M2525.82,2155.65a.13.13,0,0,1-.08,0,.14.14,0,0,1,0-.2l.28-.42a.15.15,0,0,1,.2-.05.15.15,0,0,1,0,.21l-.28.42A.14.14,0,0,1,2525.82,2155.65Z" transform="translate(-2520.42 -2152.17)"></path><path class="cls-1" d="M2526,2166.07a.6.6,0,1,1,0-1.19.6.6,0,0,1,0,1.19Zm0-.9a.3.3,0,0,0-.3.3.3.3,0,1,0,.6,0A.3.3,0,0,0,2526,2165.17Z" transform="translate(-2520.42 -2152.17)"></path><path class="cls-1" d="M2528.91,2167.46h-6.18a.73.73,0,0,1-.72-.73v-.58a.15.15,0,0,1,.14-.15.15.15,0,0,1,.15.15v.58a.43.43,0,0,0,.43.43h6.18a.43.43,0,0,0,.43-.43v-.58a.15.15,0,0,1,.3,0v.58A.73.73,0,0,1,2528.91,2167.46Z" transform="translate(-2520.42 -2152.17)"></path><path class="cls-2" d="M2525.63,2162.48h-.11a.37.37,0,0,1-.25-.35v-1.26h-.66a.36.36,0,0,1-.33-.2.37.37,0,0,1,0-.38L2526,2158a.36.36,0,0,1,.4-.13.37.37,0,0,1,.25.35v1.25h.66a.38.38,0,0,1,.33.2.35.35,0,0,1,0,.38l-1.68,2.31A.34.34,0,0,1,2525.63,2162.48Zm.66-4.42a.12.12,0,0,0-.1.05l-1.68,2.31a.14.14,0,0,0,0,.14.14.14,0,0,0,.12.06h.89v1.5a.14.14,0,0,0,.09.12.11.11,0,0,0,.14,0l1.68-2.31a.11.11,0,0,0,0-.13.12.12,0,0,0-.11-.07h-.89v-1.49a.14.14,0,0,0-.09-.13Z" transform="translate(-2520.42 -2152.17)"></path></svg> 