<?xml version="1.0" encoding="UTF-8"?> <svg xmlns="http://www.w3.org/2000/svg" id="_ÎÓÈ_1" data-name="—ÎÓÈ_1" viewBox="0 0 21.28 19.84"><defs><style>.cls-1{fill:#fff;}.cls-2{fill:#333;}.cls-3{fill:#f7931e;}</style></defs><title>cazan peleti_3</title><path class="cls-1" d="M2503.79,2151.42v6a3.49,3.49,0,0,0,.18,1.11l2.21,6.78h3.21l2.33-6.75a3.6,3.6,0,0,0,.2-1.17v-6Z" transform="translate(-2490.81 -2148.43)"></path><path class="cls-2" d="M2509.39,2165.5h-3.21a.17.17,0,0,1-.17-.12l-2.21-6.78a3.86,3.86,0,0,1-.18-1.17v-6a.16.16,0,0,1,.17-.17h8.13a.16.16,0,0,1,.17.17v6a4,4,0,0,1-.2,1.23l-2.33,6.75A.18.18,0,0,1,2509.39,2165.5Zm-3.09-.35h3l2.29-6.64a3.49,3.49,0,0,0,.18-1.11v-5.8H2504v5.83a3.46,3.46,0,0,0,.17,1.06Z" transform="translate(-2490.81 -2148.43)"></path><rect class="cls-1" x="11.82" y="15.9" width="8.08" height="1.42"></rect><path class="cls-2" d="M2510.71,2165.92h-8.08a.18.18,0,0,1-.17-.17v-1.42a.18.18,0,0,1,.17-.18h8.08a.18.18,0,0,1,.18.18v1.42A.18.18,0,0,1,2510.71,2165.92Zm-7.9-.35h7.73v-1.07h-7.73Z" transform="translate(-2490.81 -2148.43)"></path><path class="cls-1" d="M13.65,14.71h6.78a.43.43,0,0,1,.43.43v2.17a0,0,0,0,1,0,0H13.21a0,0,0,0,1,0,0V15.14A.43.43,0,0,1,13.65,14.71Z"></path><path class="cls-2" d="M2511.67,2165.92H2504a.18.18,0,0,1-.17-.17v-2.17a.61.61,0,0,1,.61-.61h6.78a.6.6,0,0,1,.6.61v2.17A.17.17,0,0,1,2511.67,2165.92Zm-7.47-.35h7.3v-2a.26.26,0,0,0-.26-.26h-6.78a.25.25,0,0,0-.26.26Z" transform="translate(-2490.81 -2148.43)"></path><rect class="cls-1" x="14.5" y="6.99" width="1" height="1.99" rx="0.5"></rect><path class="cls-2" d="M2505.81,2157.59a.67.67,0,0,1-.67-.67v-1a.67.67,0,0,1,.67-.67.68.68,0,0,1,.68.67v1A.68.68,0,0,1,2505.81,2157.59Zm0-2a.32.32,0,0,0-.32.32v1a.32.32,0,0,0,.32.33.33.33,0,0,0,.33-.33v-1A.33.33,0,0,0,2505.81,2155.6Z" transform="translate(-2490.81 -2148.43)"></path><rect class="cls-1" x="14.5" y="9.71" width="1" height="1.99" rx="0.5"></rect><path class="cls-2" d="M2505.81,2160.31a.67.67,0,0,1-.67-.67v-1a.67.67,0,0,1,.67-.67.68.68,0,0,1,.68.67v1A.68.68,0,0,1,2505.81,2160.31Zm0-2a.32.32,0,0,0-.32.33v1a.32.32,0,0,0,.32.32.33.33,0,0,0,.33-.32v-1A.33.33,0,0,0,2505.81,2158.31Z" transform="translate(-2490.81 -2148.43)"></path><rect class="cls-1" x="16.54" y="8.83" width="1" height="1.99" rx="0.5"></rect><path class="cls-2" d="M2507.85,2159.43a.67.67,0,0,1-.68-.67v-1a.68.68,0,0,1,1.35,0v1A.67.67,0,0,1,2507.85,2159.43Zm0-2a.32.32,0,0,0-.33.32v1a.33.33,0,0,0,.65,0v-1A.32.32,0,0,0,2507.85,2157.44Z" transform="translate(-2490.81 -2148.43)"></path><rect class="cls-1" x="16.54" y="11.55" width="1" height="1.99" rx="0.5"></rect><path class="cls-2" d="M2507.85,2162.15a.67.67,0,0,1-.68-.67v-1a.68.68,0,0,1,1.35,0v1A.67.67,0,0,1,2507.85,2162.15Zm0-2a.32.32,0,0,0-.33.32v1a.33.33,0,0,0,.65,0v-1A.32.32,0,0,0,2507.85,2160.16Z" transform="translate(-2490.81 -2148.43)"></path><rect class="cls-1" x="18.48" y="7.08" width="1" height="1.99" rx="0.5"></rect><path class="cls-2" d="M2509.79,2157.68a.67.67,0,0,1-.67-.67v-1a.67.67,0,0,1,1.34,0v1A.67.67,0,0,1,2509.79,2157.68Zm0-2a.33.33,0,0,0-.33.32v1a.33.33,0,0,0,.33.33.32.32,0,0,0,.32-.33v-1A.32.32,0,0,0,2509.79,2155.69Z" transform="translate(-2490.81 -2148.43)"></path><rect class="cls-1" x="16.54" y="6.1" width="1" height="1.99" rx="0.5"></rect><path class="cls-2" d="M2507.85,2156.7a.67.67,0,0,1-.68-.68v-1a.68.68,0,1,1,1.35,0v1A.67.67,0,0,1,2507.85,2156.7Zm0-2a.33.33,0,0,0-.33.33v1a.33.33,0,1,0,.65,0v-1A.33.33,0,0,0,2507.85,2154.7Z" transform="translate(-2490.81 -2148.43)"></path><rect class="cls-1" x="14.5" y="4.24" width="1" height="1.99" rx="0.5"></rect><path class="cls-2" d="M2505.81,2154.84a.67.67,0,0,1-.67-.67v-1a.67.67,0,0,1,.67-.67.68.68,0,0,1,.68.67v1A.68.68,0,0,1,2505.81,2154.84Zm0-2a.32.32,0,0,0-.32.32v1a.32.32,0,0,0,.32.32.32.32,0,0,0,.33-.32v-1A.32.32,0,0,0,2505.81,2152.85Z" transform="translate(-2490.81 -2148.43)"></path><rect class="cls-1" x="18.38" y="4.19" width="1" height="1.99" rx="0.5"></rect><path class="cls-2" d="M2509.68,2154.79a.67.67,0,0,1-.67-.67v-1a.68.68,0,0,1,1.35,0v1A.67.67,0,0,1,2509.68,2154.79Zm0-2a.32.32,0,0,0-.32.32v1a.33.33,0,0,0,.65,0v-1A.32.32,0,0,0,2509.68,2152.8Z" transform="translate(-2490.81 -2148.43)"></path><rect class="cls-1" x="18.48" y="9.8" width="1" height="1.99" rx="0.5"></rect><path class="cls-2" d="M2509.79,2160.4a.67.67,0,0,1-.67-.68v-1a.67.67,0,1,1,1.34,0v1A.67.67,0,0,1,2509.79,2160.4Zm0-2a.33.33,0,0,0-.33.33v1a.33.33,0,0,0,.33.33.32.32,0,0,0,.32-.33v-1A.32.32,0,0,0,2509.79,2158.4Z" transform="translate(-2490.81 -2148.43)"></path><rect class="cls-1" x="1.7" y="18.23" width="8.87" height="1.44"></rect><path class="cls-2" d="M2501.39,2168.27h-8.88a.16.16,0,0,1-.17-.17v-1.44a.17.17,0,0,1,.17-.18h8.88a.18.18,0,0,1,.17.18v1.44A.17.17,0,0,1,2501.39,2168.27Zm-8.71-.34h8.53v-1.1h-8.53Z" transform="translate(-2490.81 -2148.43)"></path><rect class="cls-1" x="0.17" y="0.17" width="11.9" height="18.47" rx="0.46"></rect><path class="cls-2" d="M2502.42,2167.25h-11a.64.64,0,0,1-.64-.63v-17.55a.64.64,0,0,1,.64-.64h11a.64.64,0,0,1,.63.64v17.55A.63.63,0,0,1,2502.42,2167.25Zm-11-18.47a.29.29,0,0,0-.29.29v17.55a.28.28,0,0,0,.29.28h11a.28.28,0,0,0,.29-.28v-17.55a.29.29,0,0,0-.29-.29Z" transform="translate(-2490.81 -2148.43)"></path><rect class="cls-1" x="2493.37" y="2155.05" width="7.48" height="5.55" transform="translate(2503.42 2167.23) rotate(180)"></rect><path class="cls-2" d="M2500.85,2160.78h-7.48a.17.17,0,0,1-.17-.17v-5.56a.18.18,0,0,1,.17-.17h7.48a.18.18,0,0,1,.18.17v5.56A.17.17,0,0,1,2500.85,2160.78Zm-7.3-.35h7.13v-5.2h-7.13Z" transform="translate(-2490.81 -2148.43)"></path><line class="cls-1" x1="2.56" y1="8.71" x2="1.57" y2="8.71"></line><rect class="cls-2" x="1.57" y="8.54" width="0.99" height="0.35"></rect><line class="cls-1" x1="2.56" y1="10.09" x2="1.57" y2="10.09"></line><rect class="cls-2" x="1.57" y="9.91" width="0.99" height="0.35"></rect><rect class="cls-2" x="8.46" y="8.06" width="0.35" height="2.43"></rect><rect class="cls-1" x="2493.34" y="2149.85" width="7.48" height="3.76" transform="translate(2503.34 2155.02) rotate(180)"></rect><path class="cls-2" d="M2500.82,2153.78h-7.48a.18.18,0,0,1-.18-.17v-3.76a.18.18,0,0,1,.18-.18h7.48a.18.18,0,0,1,.17.18v3.76A.18.18,0,0,1,2500.82,2153.78Zm-7.31-.35h7.13V2150h-7.13Z" transform="translate(-2490.81 -2148.43)"></path><line class="cls-1" x1="2.53" y1="2.83" x2="1.53" y2="2.83"></line><rect class="cls-2" x="1.53" y="2.65" width="0.99" height="0.35"></rect><line class="cls-1" x1="2.53" y1="3.76" x2="1.53" y2="3.76"></line><rect class="cls-2" x="1.53" y="3.59" width="0.99" height="0.35"></rect><rect class="cls-2" x="8.42" y="2.13" width="0.35" height="2.11"></rect><rect class="cls-1" x="2493.3" y="2162.06" width="7.48" height="3.76" transform="translate(2503.27 2179.44) rotate(180)"></rect><path class="cls-2" d="M2500.78,2166h-7.48a.17.17,0,0,1-.17-.18v-3.75a.17.17,0,0,1,.17-.18h7.48a.18.18,0,0,1,.18.18v3.75A.18.18,0,0,1,2500.78,2166Zm-7.31-.35h7.14v-3.41h-7.14Z" transform="translate(-2490.81 -2148.43)"></path><line class="cls-1" x1="2.49" y1="15.04" x2="1.5" y2="15.04"></line><rect class="cls-2" x="1.5" y="14.86" width="0.99" height="0.35"></rect><line class="cls-1" x1="2.49" y1="15.97" x2="1.5" y2="15.97"></line><rect class="cls-2" x="1.5" y="15.79" width="0.99" height="0.35"></rect><rect class="cls-2" x="8.38" y="14.34" width="0.35" height="2.11"></rect><path class="cls-3" d="M2496.55,2159.75h-.05a1.43,1.43,0,0,1-.77-.54,2.16,2.16,0,0,1-.33-.92h0s-.12-.94.47-1.19h0a.17.17,0,0,1,.17,0,.2.2,0,0,1,.06.14,2,2,0,0,0,0,.33c0,.17.09.24.11.24a.13.13,0,0,0,.08,0,.46.46,0,0,0,.05-.39,1.86,1.86,0,0,1-.07-.68,1.22,1.22,0,0,1,.8-1.09h0a.16.16,0,0,1,.18,0,.17.17,0,0,1,.06.16,4.91,4.91,0,0,0,0,.67,2,2,0,0,0,.13.71h0a1.29,1.29,0,0,1,.68-.5h0a.16.16,0,0,1,.19.05.18.18,0,0,1,0,.19c-.07.16-.23.63-.05.89h0l.06.1a1.29,1.29,0,0,1,.16.74,1.27,1.27,0,0,1-.94,1.06.17.17,0,0,1-.21-.12.16.16,0,0,1,.11-.21.92.92,0,0,0,.7-.78.9.9,0,0,0-.13-.52l0-.07h0a1,1,0,0,1-.12-.8.78.78,0,0,0-.25.36.14.14,0,0,1-.07.11.17.17,0,0,1-.18,0l0,0a1.71,1.71,0,0,1-.38-1.19c0-.14,0-.26,0-.37a.58.58,0,0,0-.17.18,1,1,0,0,0-.15.44,1.36,1.36,0,0,0,.07.56v0a.74.74,0,0,1-.14.69.41.41,0,0,1-.37.14.36.36,0,0,1-.27-.16,1,1,0,0,1-.14-.36,1.08,1.08,0,0,0-.05.21,1.68,1.68,0,0,0,0,.38,1.66,1.66,0,0,0,.28.77,1,1,0,0,0,.58.4.18.18,0,0,1,.12.22A.17.17,0,0,1,2496.55,2159.75Zm1.07-2.16h0Zm0,0Zm0,0h0Zm-1.68-.3Zm1.24-1.45Z" transform="translate(-2490.81 -2148.43)"></path></svg> 