<?xml version="1.0" encoding="UTF-8"?> <svg xmlns="http://www.w3.org/2000/svg" viewBox="0 0 145.14 318.46"><defs><style>.cls-1{fill:#1c1b18;}.cls-2{fill:#a4d980;}</style></defs><title>pompa caldura</title><g id="elements"><path class="cls-1" d="M186.3,266.08a1.53,1.53,0,0,1-1.06-.44,1.51,1.51,0,0,1,0-2.12l26.89-26.89a1.51,1.51,0,0,1,2.12,0,1.49,1.49,0,0,1,0,2.12l-26.88,26.89A1.53,1.53,0,0,1,186.3,266.08Z" transform="translate(-177.43 -48.57)"></path><path class="cls-1" d="M188.94,250a1.45,1.45,0,0,1-1.06-.44,1.49,1.49,0,0,1,0-2.12l8.17-8.17a1.5,1.5,0,1,1,2.12,2.12L190,249.56A1.47,1.47,0,0,1,188.94,250Z" transform="translate(-177.43 -48.57)"></path><path class="cls-1" d="M202.2,263.26a1.49,1.49,0,0,1-1.07-.44,1.51,1.51,0,0,1,0-2.12l8.18-8.18a1.5,1.5,0,1,1,2.12,2.13l-8.17,8.17A1.48,1.48,0,0,1,202.2,263.26Z" transform="translate(-177.43 -48.57)"></path><path class="cls-1" d="M235.33,100.09a10.55,10.55,0,1,1,10.55-10.55A10.56,10.56,0,0,1,235.33,100.09Zm0-18.09a7.55,7.55,0,1,0,7.55,7.54A7.55,7.55,0,0,0,235.33,82Z" transform="translate(-177.43 -48.57)"></path><path class="cls-1" d="M229.8,93.87a1.5,1.5,0,0,1-.68-2.84l5.53-2.82A1.5,1.5,0,1,1,236,90.88l-5.53,2.82A1.52,1.52,0,0,1,229.8,93.87Z" transform="translate(-177.43 -48.57)"></path><path class="cls-1" d="M264.66,100.09a10.55,10.55,0,1,1,10.55-10.55A10.56,10.56,0,0,1,264.66,100.09Zm0-18.09a7.55,7.55,0,1,0,7.55,7.54A7.55,7.55,0,0,0,264.66,82Z" transform="translate(-177.43 -48.57)"></path><path class="cls-1" d="M264.66,91a1.83,1.83,0,0,1-.4-.05L258,89.25a1.5,1.5,0,1,1,.8-2.89l6.26,1.74a1.5,1.5,0,0,1-.4,2.94Z" transform="translate(-177.43 -48.57)"></path><path class="cls-2" d="M265.88,205.54H234.43a3.08,3.08,0,0,1-3.08-3.08V186.15a3.08,3.08,0,0,1,3.08-3.08h31.45a3.08,3.08,0,0,1,3.07,3.08v16.31A3.08,3.08,0,0,1,265.88,205.54Zm-31.45-19.47a.09.09,0,0,0-.08.08v16.31a.09.09,0,0,0,.08.08h31.45a.08.08,0,0,0,.07-.08V186.15a.08.08,0,0,0-.07-.08Z" transform="translate(-177.43 -48.57)"></path><path class="cls-1" d="M178.93,190.81a1.51,1.51,0,0,1-1.06-.44,1.49,1.49,0,0,1,0-2.12l18.07-18.08a1.5,1.5,0,0,1,2.12,2.13L180,190.37A1.51,1.51,0,0,1,178.93,190.81Z" transform="translate(-177.43 -48.57)"></path><path class="cls-1" d="M321.07,190.47A1.5,1.5,0,0,1,320,190L302.24,172.3a1.5,1.5,0,0,1,2.12-2.13l17.77,17.74a1.49,1.49,0,0,1,0,2.12A1.45,1.45,0,0,1,321.07,190.47Z" transform="translate(-177.43 -48.57)"></path><path class="cls-1" d="M295.78,367a1.5,1.5,0,0,1-1.5-1.5V352.18a1.5,1.5,0,0,1,3,0v13.34A1.5,1.5,0,0,1,295.78,367Z" transform="translate(-177.43 -48.57)"></path><path class="cls-1" d="M301.49,367a1.5,1.5,0,0,1-1.5-1.5V352.18a1.5,1.5,0,0,1,3,0v13.34A1.5,1.5,0,0,1,301.49,367Z" transform="translate(-177.43 -48.57)"></path><path class="cls-1" d="M307.21,367a1.5,1.5,0,0,1-1.5-1.5V352.18a1.5,1.5,0,0,1,3,0v13.34A1.5,1.5,0,0,1,307.21,367Z" transform="translate(-177.43 -48.57)"></path><path class="cls-1" d="M303.3,172.74H197a1.5,1.5,0,0,1,0-3H303.3a1.5,1.5,0,0,1,0,3Z" transform="translate(-177.43 -48.57)"></path><path class="cls-1" d="M321.07,367H178.93a1.5,1.5,0,0,1-1.5-1.5V189.31a1.5,1.5,0,0,1,3,0V364H319.57V189a1.5,1.5,0,1,1,3,0V365.52A1.5,1.5,0,0,1,321.07,367Z" transform="translate(-177.43 -48.57)"></path><path class="cls-1" d="M242.52,172.74a1.5,1.5,0,0,1-1.5-1.5V154.63H229.66v16.61a1.5,1.5,0,0,1-3,0V153.13a1.5,1.5,0,0,1,1.5-1.5h14.36a1.5,1.5,0,0,1,1.5,1.5v18.11A1.5,1.5,0,0,1,242.52,172.74Z" transform="translate(-177.43 -48.57)"></path><path class="cls-1" d="M257.48,172.74a1.5,1.5,0,0,1-1.5-1.5V153.13a1.5,1.5,0,1,1,3,0v18.11A1.5,1.5,0,0,1,257.48,172.74Z" transform="translate(-177.43 -48.57)"></path><path class="cls-1" d="M271.84,172.74a1.5,1.5,0,0,1-1.5-1.5V153.13a1.5,1.5,0,0,1,3,0v18.11A1.5,1.5,0,0,1,271.84,172.74Z" transform="translate(-177.43 -48.57)"></path><path class="cls-1" d="M242.52,69.52H228.16a1.5,1.5,0,0,1-1.5-1.5V50.07a1.5,1.5,0,0,1,1.5-1.5h14.36a1.5,1.5,0,0,1,1.5,1.5V68A1.5,1.5,0,0,1,242.52,69.52Zm-12.86-3H241V51.57H229.66Z" transform="translate(-177.43 -48.57)"></path><path class="cls-1" d="M271.84,69.52a1.5,1.5,0,0,1-1.5-1.5V51.57H259V68a1.5,1.5,0,1,1-3,0V50.07a1.5,1.5,0,0,1,1.5-1.5h14.36a1.5,1.5,0,0,1,1.5,1.5V68A1.5,1.5,0,0,1,271.84,69.52Z" transform="translate(-177.43 -48.57)"></path><path class="cls-1" d="M280.31,154.63H219.66a1.5,1.5,0,0,1-1.5-1.5V68a1.5,1.5,0,0,1,1.5-1.5h8.5a1.5,1.5,0,0,1,0,3h-7v82.11h57.65V69.52H242.52a1.5,1.5,0,0,1,0-3h37.79a1.51,1.51,0,0,1,1.5,1.5v85.11A1.5,1.5,0,0,1,280.31,154.63Z" transform="translate(-177.43 -48.57)"></path><path class="cls-1" d="M280.31,214.15a1.5,1.5,0,0,1-1.5-1.5V178.8a1.5,1.5,0,0,1,3,0v33.85A1.5,1.5,0,0,1,280.31,214.15Z" transform="translate(-177.43 -48.57)"></path><path class="cls-1" d="M219.66,214.15a1.5,1.5,0,0,1-1.5-1.5V178.8a1.5,1.5,0,0,1,3,0v33.85A1.5,1.5,0,0,1,219.66,214.15Z" transform="translate(-177.43 -48.57)"></path><path class="cls-1" d="M280.31,359.74a1.5,1.5,0,0,1-1.5-1.5v-130a1.5,1.5,0,0,1,3,0v130A1.51,1.51,0,0,1,280.31,359.74Z" transform="translate(-177.43 -48.57)"></path><path class="cls-1" d="M219.66,359.74a1.5,1.5,0,0,1-1.5-1.5v-130a1.5,1.5,0,0,1,3,0v130A1.5,1.5,0,0,1,219.66,359.74Z" transform="translate(-177.43 -48.57)"></path><path class="cls-1" d="M321.07,220.84H178.93a1.5,1.5,0,0,1,0-3H321.07a1.5,1.5,0,0,1,0,3Z" transform="translate(-177.43 -48.57)"></path><path class="cls-1" d="M280.31,126H258.4a1.5,1.5,0,0,1,0-3h21.91a1.5,1.5,0,0,1,0,3Z" transform="translate(-177.43 -48.57)"></path><path class="cls-1" d="M280.31,131.42H258.4a1.5,1.5,0,0,1,0-3h21.91a1.5,1.5,0,0,1,0,3Z" transform="translate(-177.43 -48.57)"></path><path class="cls-1" d="M280.31,136.88H258.4a1.5,1.5,0,0,1,0-3h21.91a1.5,1.5,0,0,1,0,3Z" transform="translate(-177.43 -48.57)"></path></g></svg> 